# Blender v3.2.2 OBJ File: ''
# www.blender.org
mtllib untitled.mtl
o Plane
v -0.227436 0.000000 1.000000
v 0.227436 0.000000 1.000000
v -0.227436 0.000000 -1.000000
v 0.227436 0.000000 -1.000000
v -0.477436 0.000000 -1.000000
v 0.477436 0.000000 -1.000000
v 0.000000 0.000000 -1.750523
vt 0.000000 0.000000
vt 1.000000 0.000000
vt 1.000000 1.000000
vt 0.000000 1.000000
vt 0.000000 0.000000
vt 0.000000 0.000000
vt 0.000000 0.000000
vt 0.000000 0.000000
vn 0.0000 1.0000 0.0000
usemtl None
s off
f 1/1/1 2/2/1 4/3/1 3/4/1
f 3/5/1 7/6/1 5/7/1
f 3/5/1 4/3/1 7/6/1
f 7/6/1 4/3/1 6/8/1
o Cone
v 0.000000 1.198491 -1.000000
v 0.406737 1.198491 -0.913545
v 0.743145 1.198491 -0.669131
v 0.951057 1.198491 -0.309017
v 0.994522 1.198491 0.104529
v 0.866025 1.198491 0.500000
v 0.587785 1.198491 0.809017
v 0.207912 1.198491 0.978148
v -0.207912 1.198491 0.978148
v -0.587785 1.198491 0.809017
v -0.866025 1.198491 0.500000
v -0.994522 1.198491 0.104528
v -0.951056 1.198491 -0.309017
v -0.743145 1.198491 -0.669131
v -0.406736 1.198491 -0.913546
v 0.000000 3.198491 0.000000
v 0.000000 -0.801775 -0.518035
v 0.000000 1.198225 -0.518035
v 0.210704 -0.801775 -0.473249
v 0.210704 1.198225 -0.473249
v 0.384975 -0.801775 -0.346633
v 0.384975 1.198225 -0.346633
v 0.492681 -0.801775 -0.160082
v 0.492681 1.198225 -0.160082
v 0.515197 -0.801775 0.054149
v 0.515197 1.198225 0.054149
v 0.448631 -0.801775 0.259018
v 0.448631 1.198225 0.259018
v 0.304493 -0.801775 0.419099
v 0.304493 1.198225 0.419099
v 0.107706 -0.801775 0.506715
v 0.107706 1.198225 0.506715
v -0.107706 -0.801775 0.506715
v -0.107706 1.198225 0.506715
v -0.304493 -0.801775 0.419099
v -0.304493 1.198225 0.419099
v -0.448632 -0.801775 0.259017
v -0.448632 1.198225 0.259017
v -0.515197 -0.801775 0.054149
v -0.515197 1.198225 0.054149
v -0.492681 -0.801775 -0.160082
v -0.492681 1.198225 -0.160082
v -0.384975 -0.801775 -0.346633
v -0.384975 1.198225 -0.346633
v -0.210704 -0.801775 -0.473249
v -0.210704 1.198225 -0.473249
vt 0.250000 0.490000
vt 0.250000 0.250000
vt 0.347617 0.469251
vt 0.428355 0.410591
vt 0.478254 0.324164
vt 0.488685 0.224913
vt 0.457846 0.130000
vt 0.391068 0.055836
vt 0.299899 0.015245
vt 0.200101 0.015245
vt 0.108932 0.055836
vt 0.042154 0.130000
vt 0.011315 0.224913
vt 0.021746 0.324164
vt 0.071645 0.410591
vt 0.466667 1.000000
vt 0.533333 1.000000
vt 0.152383 0.469251
vt 1.000000 0.500000
vt 1.000000 1.000000
vt 0.933333 1.000000
vt 0.933333 0.500000
vt 0.866667 1.000000
vt 0.866667 0.500000
vt 0.800000 1.000000
vt 0.800000 0.500000
vt 0.733333 1.000000
vt 0.733333 0.500000
vt 0.666667 1.000000
vt 0.666667 0.500000
vt 0.600000 1.000000
vt 0.600000 0.500000
vt 0.533333 0.500000
vt 0.466667 0.500000
vt 0.400000 1.000000
vt 0.400000 0.500000
vt 0.333333 1.000000
vt 0.333333 0.500000
vt 0.266667 1.000000
vt 0.266667 0.500000
vt 0.200000 1.000000
vt 0.200000 0.500000
vt 0.133333 1.000000
vt 0.133333 0.500000
vt 0.347617 0.469251
vt 0.250000 0.490000
vt 0.152383 0.469251
vt 0.071645 0.410591
vt 0.021746 0.324164
vt 0.011315 0.224913
vt 0.042154 0.130000
vt 0.108932 0.055836
vt 0.200101 0.015245
vt 0.299899 0.015245
vt 0.391068 0.055836
vt 0.457846 0.130000
vt 0.488685 0.224913
vt 0.478254 0.324164
vt 0.428355 0.410591
vt 0.066667 1.000000
vt 0.066667 0.500000
vt 0.000000 1.000000
vt 0.000000 0.500000
vt 0.750000 0.490000
vt 0.847617 0.469251
vt 0.928355 0.410591
vt 0.978254 0.324164
vt 0.988685 0.224913
vt 0.957846 0.130000
vt 0.891068 0.055836
vt 0.799899 0.015245
vt 0.700101 0.015245
vt 0.608932 0.055836
vt 0.542154 0.130000
vt 0.511315 0.224913
vt 0.521746 0.324164
vt 0.571645 0.410591
vt 0.652383 0.469251
vt 0.000000 0.000000
vt 0.000000 0.000000
vt 0.000000 0.000000
vt 0.000000 0.000000
vt 0.000000 0.000000
vt 0.000000 0.000000
vt 0.000000 0.000000
vt 0.000000 0.000000
vt 0.000000 0.000000
vt 0.000000 0.000000
vt 0.000000 0.000000
vt 0.000000 0.000000
vt 0.000000 0.000000
vt 0.000000 0.000000
vt 0.000000 0.000000
vt 0.000000 0.000000
vt 0.000000 0.000000
vt 0.000000 0.000000
vt 0.000000 0.000000
vt 0.000000 0.000000
vt 0.000000 0.000000
vt 0.000000 0.000000
vt 0.000000 0.000000
vt 0.000000 0.000000
vt 0.000000 0.000000
vt 0.000000 0.000000
vt 0.000000 0.000000
vt 0.000000 0.000000
vt 0.000000 0.000000
vt 0.000000 0.000000
vn 0.0000 -0.4807 -0.8769
vn 0.0000 1.0000 0.0000
vn 0.3567 -0.4807 -0.8011
vn 0.6517 -0.4807 -0.5868
vn 0.8340 -0.4807 -0.2710
vn 0.8721 -0.4807 0.0917
vn 0.7594 -0.4807 0.4384
vn 0.5154 -0.4807 0.7094
vn 0.1823 -0.4807 0.8577
vn -0.1823 -0.4807 0.8577
vn -0.5154 -0.4807 0.7094
vn -0.7594 -0.4807 0.4384
vn -0.8721 -0.4807 0.0917
vn -0.8340 -0.4807 -0.2710
vn -0.6517 -0.4807 -0.5868
vn -0.2006 -0.2629 0.9437
vn 0.2006 -0.2629 0.9437
vn -0.3567 -0.4807 -0.8011
vn 0.0000 -0.6632 -0.7485
vn 0.0000 -0.2629 -0.9648
vn 0.3924 -0.2629 -0.8814
vn 0.3044 -0.6632 -0.6838
vn 0.7170 -0.2629 -0.6456
vn 0.5562 -0.6632 -0.5008
vn 0.9176 -0.2629 -0.2981
vn 0.7118 -0.6632 -0.2313
vn 0.9595 -0.2629 0.1009
vn 0.7444 -0.6632 0.0782
vn 0.8356 -0.2629 0.4824
vn 0.6482 -0.6632 0.3742
vn 0.5671 -0.2629 0.7806
vn 0.4399 -0.6632 0.6055
vn 0.1556 -0.6632 0.7321
vn -0.1556 -0.6632 0.7321
vn -0.5671 -0.2629 0.7806
vn -0.4399 -0.6632 0.6055
vn -0.8356 -0.2629 0.4824
vn -0.6482 -0.6632 0.3742
vn -0.9595 -0.2629 0.1009
vn -0.7444 -0.6632 0.0782
vn -0.9176 -0.2629 -0.2981
vn -0.7118 -0.6632 -0.2313
vn -0.7170 -0.2629 -0.6456
vn -0.5562 -0.6632 -0.5008
vn -0.3924 -0.2629 -0.8814
vn -0.3044 -0.6632 -0.6838
usemtl None
s 1
f 8/9/2 23/10/3 9/11/4
f 9/11/4 23/10/3 10/12/5
f 10/12/5 23/10/3 11/13/6
f 11/13/6 23/10/3 12/14/7
f 12/14/7 23/10/3 13/15/8
f 13/15/8 23/10/3 14/16/9
f 14/16/9 23/10/3 15/17/10
f 15/17/10 23/10/3 16/18/11
f 16/18/11 23/10/3 17/19/12
f 17/19/12 23/10/3 18/20/13
f 18/20/13 23/10/3 19/21/14
f 19/21/14 23/10/3 20/22/15
f 20/22/15 23/10/3 21/23/16
f 16/18/11 41/24/17 39/25/18 15/17/10
f 21/23/16 23/10/3 22/26/19
f 22/26/19 23/10/3 8/9/2
f 24/27/20 25/28/21 27/29/22 26/30/23
f 26/30/23 27/29/22 29/31/24 28/32/25
f 28/32/25 29/31/24 31/33/26 30/34/27
f 30/34/27 31/33/26 33/35/28 32/36/29
f 32/36/29 33/35/28 35/37/30 34/38/31
f 34/38/31 35/37/30 37/39/32 36/40/33
f 36/40/33 37/39/32 39/25/18 38/41/34
f 38/41/34 39/25/18 41/24/17 40/42/35
f 40/42/35 41/24/17 43/43/36 42/44/37
f 42/44/37 43/43/36 45/45/38 44/46/39
f 44/46/39 45/45/38 47/47/40 46/48/41
f 46/48/41 47/47/40 49/49/42 48/50/43
f 48/50/43 49/49/42 51/51/44 50/52/45
f 27/53/22 25/54/21 53/55/46 51/56/44 49/57/42 47/58/40 45/59/38 43/60/36 41/61/17 39/62/18 37/63/32 35/64/30 33/65/28 31/66/26 29/67/24
f 50/52/45 51/51/44 53/68/46 52/69/47
f 52/69/47 53/68/46 25/70/21 24/71/20
f 24/72/20 26/73/23 28/74/25 30/75/27 32/76/29 34/77/31 36/78/33 38/79/34 40/80/35 42/81/37 44/82/39 46/83/41 48/84/43 50/85/45 52/86/47
f 14/87/9 15/88/10 39/89/18 37/90/32
f 13/91/8 14/87/9 37/90/32 35/92/30
f 12/93/7 13/91/8 35/92/30 33/94/28
f 11/95/6 12/93/7 33/94/28 31/96/26
f 10/97/5 11/95/6 31/96/26 29/98/24
f 9/99/4 10/97/5 29/98/24 27/100/22
f 8/101/2 9/99/4 27/100/22 25/102/21
f 53/103/46 22/104/19 8/101/2 25/102/21
f 51/105/44 21/106/16 22/104/19 53/103/46
f 49/107/42 20/108/15 21/106/16 51/105/44
f 47/109/40 19/110/14 20/108/15 49/107/42
f 45/111/38 18/112/13 19/110/14 47/109/40
f 43/113/36 17/114/12 18/112/13 45/111/38
f 41/115/17 16/116/11 17/114/12 43/113/36
